<?xml version="1.0" encoding="utf-8"?>
<!-- Generator: Adobe Illustrator 26.0.1, SVG Export Plug-In . SVG Version: 6.00 Build 0)  -->
<svg version="1.1" id="Layer_1" xmlns="http://www.w3.org/2000/svg" xmlns:xlink="http://www.w3.org/1999/xlink" x="0px" y="0px"
	 viewBox="0 0 512 512" style="enable-background:new 0 0 512 512;" xml:space="preserve">
<path d="M118,431.6C55.7,431.6,5.2,381,5.2,318.7c0-49.2,31.5-91.1,75.4-106.5c-0.1-2.1-0.2-4.2-0.2-6.3
	c0-69.3,56.1-125.4,125.4-125.4c46.5,0,87,25.2,108.7,62.9c11.9-8,26.3-12.7,41.8-12.7c41.5,0,75.2,33.7,75.2,75.2
	c0,9.6-1.8,18.7-5,27.1c45.8,9.2,80.3,49.8,80.3,98.3c0,55.4-44.9,100.3-100.3,100.3H118z M180,300.7l62.7,62.7
	c7.4,7.4,19.3,7.4,26.6,0l62.7-62.7c7.4-7.4,7.4-19.3,0-26.6c-7.4-7.3-19.3-7.4-26.6,0l-30.6,30.6V199.6c0-10.4-8.4-18.8-18.8-18.8
	c-10.4,0-18.8,8.4-18.8,18.8v105.1l-30.6-30.6c-7.4-7.4-19.3-7.4-26.6,0C172.8,281.5,172.7,293.4,180,300.7L180,300.7z"/>
</svg>
