<?xml version="1.0" encoding="utf-8"?>
<!-- Generator: Adobe Illustrator 26.0.1, SVG Export Plug-In . SVG Version: 6.00 Build 0)  -->
<svg version="1.1" id="Layer_1" xmlns="http://www.w3.org/2000/svg" xmlns:xlink="http://www.w3.org/1999/xlink" x="0px" y="0px"
	 viewBox="0 0 400 200" style="enable-background:new 0 0 400 200;" xml:space="preserve">
<style type="text/css">
	.st0{fill:#F8F8F8;}
	.st1{fill:#439A97;}
</style>
<path class="st0" d="M384.9,200H15.1C6.8,200,0,193.2,0,184.9V15.1C0,6.8,6.8,0,15.1,0h369.8c8.3,0,15.1,6.8,15.1,15.1v169.8
	C400,193.2,393.2,200,384.9,200z"/>
<g>
	<path class="st1" d="M148.3,106.4v-16h3.2v16H148.3z M149.9,106.4v-2.8h8.9v2.8H149.9z"/>
	<path class="st1" d="M160.4,100.4c0-1.3,0.3-2.5,0.8-3.4s1.2-1.7,2-2.2c0.9-0.5,1.9-0.8,3-0.8c1.1,0,2.1,0.3,3,0.8
		c0.9,0.5,1.5,1.2,2,2.2c0.5,0.9,0.7,2.1,0.7,3.4c0,1.3-0.2,2.4-0.7,3.4c-0.5,0.9-1.2,1.7-2,2.2c-0.9,0.5-1.9,0.8-3,0.8
		c-1.1,0-2.1-0.2-3-0.8c-0.9-0.5-1.5-1.2-2-2.2S160.4,101.7,160.4,100.4z M163.5,100.4c0,0.8,0.1,1.6,0.3,2.1c0.2,0.6,0.5,1,0.9,1.2
		s0.9,0.4,1.4,0.4c0.5,0,1-0.1,1.4-0.4c0.4-0.3,0.7-0.7,0.9-1.2c0.2-0.6,0.3-1.3,0.3-2.1c0-0.9-0.1-1.6-0.3-2.1
		c-0.2-0.6-0.5-1-0.9-1.3c-0.4-0.3-0.9-0.4-1.4-0.4c-0.6,0-1,0.1-1.4,0.4c-0.4,0.3-0.7,0.7-0.9,1.3
		C163.6,98.8,163.5,99.6,163.5,100.4z"/>
	<path class="st1" d="M174,103.3c0-0.7,0.2-1.4,0.6-2c0.4-0.6,1-1.1,1.9-1.4c0.8-0.4,1.9-0.6,3.3-0.6l1.9-0.1v1.8l-1.7,0.1
		c-0.8,0.1-1.4,0.2-1.8,0.4c-0.4,0.2-0.8,0.4-0.9,0.7c-0.2,0.3-0.3,0.5-0.3,0.8c0,0.4,0.1,0.7,0.4,1c0.3,0.2,0.6,0.4,1,0.4
		c0.6,0,1.1-0.1,1.7-0.4c0.5-0.3,1-0.7,1.4-1.2v1.9c-0.4,0.6-0.9,1.1-1.6,1.5c-0.7,0.4-1.4,0.6-2.3,0.6c-0.6,0-1.2-0.1-1.7-0.4
		s-0.9-0.7-1.3-1.2S174,104,174,103.3z M174.3,95.2c0.6-0.3,1.3-0.5,2.1-0.8c0.8-0.2,1.7-0.3,2.5-0.3c1,0,1.9,0.2,2.6,0.5
		c0.8,0.4,1.4,0.9,1.8,1.6c0.4,0.7,0.7,1.6,0.7,2.6v4.7c0,0.3,0,0.6,0,0.9c0,0.3,0.1,0.6,0.1,0.9l0.2,1.1h-2.9l-0.5-2.3v-5
		c0-0.8-0.2-1.4-0.6-1.8c-0.4-0.4-1-0.6-1.8-0.6c-0.6,0-1.2,0.1-1.8,0.3c-0.6,0.2-1.1,0.4-1.5,0.6L174.3,95.2z"/>
	<path class="st1" d="M186.7,100.4c0-1.4,0.2-2.5,0.7-3.4s1-1.6,1.8-2.1c0.8-0.5,1.6-0.7,2.6-0.7c0.8,0,1.4,0.2,2.1,0.6
		c0.6,0.4,1.1,1,1.5,1.8s0.6,1.8,0.6,2.9l-1.1,0.2c0-0.7-0.1-1.3-0.3-1.8s-0.5-0.8-0.8-1c-0.3-0.2-0.7-0.3-1.2-0.3
		c-0.8,0-1.5,0.3-2,1s-0.8,1.6-0.8,2.7c0,0.8,0.1,1.5,0.3,2c0.2,0.5,0.5,1,0.9,1.2c0.4,0.3,0.8,0.4,1.3,0.4c0.5,0,1-0.1,1.5-0.4
		c0.5-0.3,1-0.6,1.4-1.1v2.1c-0.5,0.6-1,1.2-1.7,1.6s-1.4,0.6-2.2,0.6c-0.8,0-1.6-0.3-2.3-0.8c-0.7-0.5-1.2-1.2-1.7-2.2
		C186.9,102.8,186.7,101.7,186.7,100.4z M195.2,106.4l-0.5-2.3V89.9l3-0.5v14.1c0,0.3,0,0.6,0,0.9c0,0.3,0.1,0.6,0.1,0.9l0.2,1.1
		H195.2z"/>
	<path class="st1" d="M201.2,90.9c0-0.5,0.2-0.9,0.5-1.3s0.8-0.5,1.3-0.5c0.5,0,1,0.2,1.3,0.5s0.5,0.8,0.5,1.3
		c0,0.5-0.2,0.9-0.5,1.3c-0.3,0.4-0.8,0.5-1.3,0.5c-0.5,0-1-0.2-1.3-0.5C201.4,91.8,201.2,91.4,201.2,90.9z M201.5,106.4V94.4h3
		v12.1H201.5z"/>
	<path class="st1" d="M207.9,94.4h2.9l0.5,2.3v9.8h-3v-9.2c0-0.3,0-0.6,0-0.9c0-0.3-0.1-0.6-0.1-0.9L207.9,94.4z M210.9,98.4v-2.1
		c0.5-0.6,1.1-1.2,1.7-1.6c0.7-0.4,1.4-0.6,2.2-0.6c0.7,0,1.4,0.2,2.1,0.5s1.2,0.9,1.5,1.6c0.4,0.7,0.6,1.6,0.6,2.7v7.5h-3v-7
		c0-0.6-0.1-1.1-0.3-1.4c-0.2-0.4-0.5-0.6-0.8-0.8c-0.3-0.2-0.7-0.3-1.1-0.3c-0.5,0-1,0.1-1.5,0.4S211.3,97.9,210.9,98.4z"/>
	<path class="st1" d="M221.8,100.1c0-1.3,0.2-2.4,0.7-3.3s1-1.6,1.8-2c0.7-0.5,1.6-0.7,2.6-0.7c0.8,0,1.5,0.2,2.1,0.6
		c0.6,0.4,1.1,1,1.5,1.8c0.4,0.8,0.6,1.8,0.6,3l-1.1,0.2c0-0.7-0.1-1.3-0.3-1.8s-0.5-0.8-0.8-1c-0.3-0.2-0.7-0.3-1.2-0.3
		c-0.8,0-1.5,0.3-2,0.9s-0.8,1.4-0.8,2.5c0,0.7,0.1,1.3,0.3,1.8s0.5,0.8,0.9,1.1s0.8,0.4,1.3,0.4c0.5,0,1-0.1,1.5-0.3
		c0.5-0.2,1-0.5,1.4-0.9v1.9c-0.5,0.6-1,1.1-1.7,1.5c-0.7,0.3-1.4,0.5-2.1,0.5c-0.9,0-1.6-0.2-2.3-0.7c-0.7-0.5-1.2-1.1-1.7-2
		C222,102.3,221.8,101.3,221.8,100.1z M222.5,110l0.8-2.5c0.5,0.2,1,0.5,1.6,0.6c0.6,0.2,1.1,0.3,1.8,0.3c1,0,1.8-0.3,2.3-0.8
		s0.9-1.4,0.9-2.6v-8.3l0.5-2.3h2.9l-0.2,1.1c-0.1,0.3-0.1,0.6-0.1,0.9c0,0.3,0,0.5,0,0.9v7.7c0,1.3-0.3,2.4-0.8,3.3
		c-0.5,0.9-1.2,1.6-2.2,2.1c-0.9,0.5-2,0.7-3.1,0.7c-0.8,0-1.6-0.1-2.4-0.3C223.7,110.5,223,110.2,222.5,110z"/>
	<path class="st1" d="M235.8,104.8c0-0.6,0.2-1,0.5-1.4s0.8-0.5,1.4-0.5c0.6,0,1,0.2,1.4,0.5s0.5,0.8,0.5,1.4c0,0.5-0.2,1-0.5,1.4
		s-0.8,0.5-1.4,0.5c-0.6,0-1-0.2-1.4-0.5S235.8,105.3,235.8,104.8z"/>
	<path class="st1" d="M241.8,104.8c0-0.6,0.2-1,0.5-1.4s0.8-0.5,1.4-0.5c0.6,0,1,0.2,1.4,0.5s0.5,0.8,0.5,1.4c0,0.5-0.2,1-0.5,1.4
		s-0.8,0.5-1.4,0.5c-0.6,0-1-0.2-1.4-0.5S241.8,105.3,241.8,104.8z"/>
	<path class="st1" d="M247.8,104.8c0-0.6,0.2-1,0.5-1.4s0.8-0.5,1.4-0.5c0.6,0,1,0.2,1.4,0.5s0.5,0.8,0.5,1.4c0,0.5-0.2,1-0.5,1.4
		s-0.8,0.5-1.4,0.5c-0.6,0-1-0.2-1.4-0.5S247.8,105.3,247.8,104.8z"/>
</g>
</svg>
