<?xml version="1.0" encoding="utf-8"?>
<!-- Generator: Adobe Illustrator 26.0.1, SVG Export Plug-In . SVG Version: 6.00 Build 0)  -->
<svg version="1.1" id="Layer_1" xmlns="http://www.w3.org/2000/svg" xmlns:xlink="http://www.w3.org/1999/xlink" x="0px" y="0px"
	 viewBox="0 0 512 512" style="enable-background:new 0 0 512 512;" xml:space="preserve">
<style type="text/css">
	.st0{fill:none;stroke:#D2D8DF;stroke-width:4.0493;stroke-linecap:round;stroke-miterlimit:10;}
	.st1{fill:#EBECED;}
	.st2{fill:#D2D8DF;}
	.st3{fill:url(#Fill_1_00000182493010459405060510000006460443046904414108_);}
	.st4{fill:#F1F2F7;}
	.st5{fill:#E0E2ED;}
</style>
<g id="Artwork" transform="translate(1.065 1.461)">
	<g id="circle">
		<path id="Stroke_1" class="st0" d="M24.6,238.2v4.2"/>
		<g id="Group_8" transform="translate(0 132)">
			<path id="Stroke_2" class="st0" d="M15.3,108.4l3.4,3.5"/>
			<path id="Stroke_4" class="st0" d="M11.3,117.7h4.8"/>
			<path id="Stroke_6" class="st0" d="M14.9,127.2l3.4-3.5"/>
		</g>
		<path id="Stroke_9" class="st0" d="M24.6,260.4v-4.2"/>
		<path id="Stroke_10" class="st0" d="M31.5,257.6l-2.8-2.8"/>
		<path id="Stroke_11" class="st0" d="M37.1,250.7h-4.2"/>
		<path id="Stroke_12" class="st0" d="M34.3,240.9l-2.8,2.8"/>
		<path id="Stroke_13" class="st0" d="M247.8,56.6v2.8"/>
		<path id="Stroke_15" class="st0" d="M239.5,64.9h2.8"/>
		<path id="Stroke_16" class="st0" d="M247.8,73.2v-2.8"/>
		<path id="Stroke_17" class="st0" d="M254.7,64.9h-2.8"/>
		<path id="Stroke_18" class="st0" d="M87,173v4.2"/>
		<path id="Stroke_19" class="st0" d="M74.5,185.5h4.2"/>
		<path id="Stroke_20" class="st0" d="M87,196.6v-4.2"/>
		<path id="Stroke_21" class="st0" d="M98.1,185.5h-4.2"/>
		<g id="Group_42" transform="translate(26 27)">
			<path id="Stroke_22" class="st0" d="M359.4,297.2c3.3,0,6,2.7,6,6c0,3.3-2.7,6-6,6c-3.3,0-6-2.7-6-6c0,0,0,0,0,0"/>
			<path id="Stroke_24" class="st0" d="M386.8,376.1c0.7,5.2-2.9,10-8,10.7s-10-2.9-10.7-8c-0.7-5.2,2.9-10,8-10.7"/>
			<path id="Fill_26" class="st1" d="M386.8,242.7c3.6-1.1,9-5.5,10.3-10.2c1.1,4.1,6,9,10.3,9.4c-4.9,1.7-9.5,6.9-10.3,10.9
				C396.6,248.8,390.2,243.3,386.8,242.7"/>
			<path id="Fill_28" class="st1" d="M21.2,295.3c2.4-0.9,4.2-2.7,5.1-5.1c0.8,2.4,2.7,4.2,5.1,4.7c-2.5,0.9-4.4,2.9-5.1,5.4
				C26,298.3,22.8,295.6,21.2,295.3"/>
			<path id="Fill_30" class="st2" d="M54.2,102.5c0,2.6-2.1,4.7-4.7,4.7s-4.7-2.1-4.7-4.7c0-2.6,2.1-4.7,4.7-4.7
				C52.1,97.8,54.2,99.9,54.2,102.5C54.2,102.5,54.2,102.5,54.2,102.5"/>
			<path id="Fill_32" class="st1" d="M329,394.7c0,4.3-3.5,7.8-7.8,7.8s-7.8-3.5-7.8-7.8c0-4.3,3.5-7.8,7.8-7.8
				C325.5,386.9,329,390.4,329,394.7"/>
			<path id="Fill_34" class="st1" d="M472.6,93.9c0,3.4-2.8,6.2-6.2,6.2c-3.4,0-6.2-2.8-6.2-6.2c0-3.4,2.8-6.2,6.2-6.2
				C469.8,87.7,472.6,90.5,472.6,93.9C472.6,93.9,472.6,93.9,472.6,93.9"/>
			<path id="Stroke_36" class="st0" d="M141.2,382.1c0,2.1-1.7,3.9-3.9,3.9c-2.1,0-3.9-1.7-3.9-3.9c0-2.1,1.7-3.9,3.9-3.9
				C139.4,378.2,141.2,379.9,141.2,382.1C141.2,382.1,141.2,382.1,141.2,382.1z"/>
			<path id="Stroke_38" class="st0" d="M138.9,72.6c0,2.6-2.1,4.7-4.7,4.7c-2.6,0-4.7-2.1-4.7-4.7c0-2.6,2.1-4.7,4.7-4.7
				C136.8,67.9,138.9,70,138.9,72.6C138.9,72.6,138.9,72.6,138.9,72.6z"/>
			<path id="Stroke_40" class="st0" d="M257.5,425.1c-3,1.1-6.3-0.4-7.4-3.3s0.4-6.3,3.3-7.4c3-1.1,6.3,0.4,7.4,3.3c0,0,0,0,0,0
				C262,420.7,260.5,424,257.5,425.1z"/>
		</g>
	</g>
	
		<linearGradient id="Fill_1_00000160905007607869531560000005454540827694551226_" gradientUnits="userSpaceOnUse" x1="3.3703" y1="508.9803" x2="1.984" y2="507.5941" gradientTransform="matrix(53.888 0 0 -111.429 100.8619 56972.8281)">
		<stop  offset="0" style="stop-color:#F58862"/>
		<stop  offset="1" style="stop-color:#F063A3"/>
	</linearGradient>
	<path id="Fill_1" style="fill:url(#Fill_1_00000160905007607869531560000005454540827694551226_);" d="M202,355.9h26.6l-13.9,44.3
		l62-62.7h-37.4l20.9-91.8L202,355.9z"/>
	<g id="Group_6" transform="translate(59 58.922)">
		<path id="Fill_2" class="st4" d="M302.1,159c-6.7-4.8-14.4-7.9-22.5-9.1c-5-43.6-44.5-74.9-88.2-69.9c-21.2,2.4-40.4,13.3-53.6,30
			c-26.8-9-55.8,5.5-64.8,32.3c-1.1,3.2-1.8,6.6-2.3,9.9c-28,8.7-43.6,38.4-34.9,66.4c6.9,22.1,27.3,37.2,50.4,37.3
			c1.5,0.2,3.1,0.3,4.6,0.3h173.4c28.8,5.4,56.5-13.5,62-42.3C330.4,192.4,320.8,170.6,302.1,159"/>
		<path id="Fill_4" class="st5" d="M154.6,129c-6.4-2.6-13.3-3.9-20.2-3.9c-26.7,0-48.3,19-48.3,42.5c0,2.3,0.2,4.7,0.7,7
			C107.6,145.3,121.9,133.6,154.6,129"/>
	</g>
</g>
</svg>
