<?xml version="1.0" encoding="utf-8"?>
<!-- Generator: Adobe Illustrator 26.0.1, SVG Export Plug-In . SVG Version: 6.00 Build 0)  -->
<svg version="1.1" id="Layer_1" xmlns="http://www.w3.org/2000/svg" xmlns:xlink="http://www.w3.org/1999/xlink" x="0px" y="0px"
	 viewBox="0 0 512 512" style="enable-background:new 0 0 512 512;" xml:space="preserve">
<style type="text/css">
	.st0{fill:none;stroke:#D2D8DF;stroke-width:4.0926;stroke-linecap:round;stroke-miterlimit:10;}
	.st1{fill:#EBECED;}
	.st2{fill:#D2D8DF;}
	.st3{fill:#E0E2ED;}
	.st4{fill:#E8EBF1;}
	.st5{fill:#D9DBEA;}
	.st6{fill:#F1F2F7;}
	.st7{opacity:0;fill:#F2F2F3;}
	.st8{fill:url(#Fill_25_00000162350064558182567110000002036069214855022771_);}
	.st9{fill:#F0555F;}
	.st10{fill:url(#Fill_31_00000094581914431702204450000014883343074684564640_);}
	.st11{opacity:0.57;fill:#F2F2F3;}
</style>
<g>
	<g id="circle">
		<path id="Stroke_1" class="st0" d="M23.7,225.1v4.2"/>
		<g id="Group_8" transform="translate(0 132)">
			<path id="Stroke_2" class="st0" d="M14.3,95.4l3.4,3.5"/>
			<path id="Stroke_4" class="st0" d="M10.3,104.8h4.9"/>
			<path id="Stroke_6" class="st0" d="M13.9,114.4l3.4-3.5"/>
		</g>
		<path id="Stroke_9" class="st0" d="M23.7,247.5v-4.2"/>
		<path id="Stroke_10" class="st0" d="M30.7,244.7l-2.8-2.8"/>
		<path id="Stroke_11" class="st0" d="M36.3,237.7h-4.2"/>
		<path id="Stroke_12" class="st0" d="M33.5,227.9l-2.8,2.8"/>
		<path id="Stroke_13" class="st0" d="M249.3,41.6v2.8"/>
		<path id="Stroke_15" class="st0" d="M240.9,50h2.8"/>
		<path id="Stroke_16" class="st0" d="M249.3,58.4v-2.8"/>
		<path id="Stroke_17" class="st0" d="M256.3,50h-2.8"/>
		<path id="Stroke_18" class="st0" d="M86.8,159.2v4.2"/>
		<path id="Stroke_19" class="st0" d="M74.2,171.9h4.2"/>
		<path id="Stroke_20" class="st0" d="M86.8,183.1v-4.2"/>
		<path id="Stroke_21" class="st0" d="M98,171.9h-4.2"/>
		<g id="Group_42" transform="translate(26 27)">
			<path id="Stroke_22" class="st0" d="M362.4,285c3.3,0,6.1,2.7,6.1,6.1s-2.7,6.1-6.1,6.1s-6.1-2.7-6.1-6.1c0,0,0,0,0,0"/>
			<path id="Fill_26" class="st1" d="M390.1,230c3.6-1.1,9.1-5.5,10.4-10.3c1.2,4.2,6,9.1,10.4,9.5c-4.9,1.7-9.6,6.9-10.4,11
				C400,236.1,393.5,230.6,390.1,230"/>
			<path id="Fill_28" class="st1" d="M20.5,283.1c2.4-0.9,4.3-2.8,5.2-5.1c0.8,2.4,2.7,4.2,5.2,4.8c-2.5,0.9-4.4,3-5.2,5.5
				C25.5,286.2,22.2,283.5,20.5,283.1"/>
			<path id="Fill_30" class="st2" d="M54,88.2c0,2.6-2.1,4.7-4.7,4.7c-2.6,0-4.7-2.1-4.7-4.7c0-2.6,2.1-4.7,4.7-4.7
				C51.8,83.5,54,85.6,54,88.2C54,88.2,54,88.2,54,88.2"/>
			<path id="Fill_32" class="st1" d="M367.9,100.9c0,4.3-3.5,7.9-7.9,7.9c-4.3,0-7.9-3.5-7.9-7.9c0-4.3,3.5-7.9,7.9-7.9
				C364.4,93,367.9,96.5,367.9,100.9"/>
			<path id="Fill_34" class="st1" d="M476.8,79.6c0,3.4-2.8,6.2-6.2,6.2s-6.2-2.8-6.2-6.2c0-3.4,2.8-6.2,6.2-6.2
				C474,73.3,476.8,76.1,476.8,79.6C476.8,79.6,476.8,79.6,476.8,79.6"/>
			<path id="Stroke_36" class="st0" d="M141.8,370.8c0,2.2-1.8,3.9-3.9,3.9c-2.2,0-3.9-1.8-3.9-3.9c0-2.2,1.8-3.9,3.9-3.9
				C140.1,366.9,141.8,368.6,141.8,370.8C141.8,370.8,141.8,370.8,141.8,370.8z"/>
			<path id="Stroke_38" class="st0" d="M139.5,58c0,2.6-2.1,4.7-4.7,4.7c-2.6,0-4.7-2.1-4.7-4.7c0-2.6,2.1-4.7,4.7-4.7
				C137.4,53.3,139.5,55.4,139.5,58C139.5,58,139.5,58,139.5,58z"/>
			<path id="Stroke_40" class="st0" d="M259.4,414.3c-3,1.1-6.4-0.4-7.5-3.4c-1.1-3,0.4-6.4,3.4-7.5c3-1.1,6.4,0.4,7.5,3.4
				c0,0,0,0,0,0C263.9,409.8,262.4,413.2,259.4,414.3z"/>
		</g>
	</g>
	<g id="documents">
		<path id="Fill_1" class="st3" d="M283.6,330.2H168.7c-8.1,0-14.7-6.6-14.7-14.8V151.6c0-8.1,6.6-14.7,14.7-14.7h114.9
			c8.1,0,14.7,6.6,14.7,14.7v163.8C298.3,323.5,291.8,330.1,283.6,330.2"/>
		<path id="Fill_3" class="st4" d="M273.8,337.2H158.9c-8.1,0-14.7-6.6-14.7-14.8V158.6c0-8.1,6.6-14.7,14.7-14.7h114.9
			c8.1,0,14.7,6.6,14.7,14.7v163.8C288.5,330.6,282,337.1,273.8,337.2"/>
		<path id="Fill_5" class="st5" d="M264.3,342.7H149.2c-8.1,0-14.7-6.6-14.7-14.7V164.9c0-8.1,6.6-14.7,14.7-14.7h115.1
			c8.1,0,14.7,6.6,14.7,14.7V328C279,336.1,272.4,342.7,264.3,342.7"/>
		<path id="Fill_8" class="st6" d="M264.3,342.7H149.2c-8.1,0-14.7-6.6-14.7-14.7V164.9c0-8.1,6.6-14.7,14.7-14.7h115.1
			c8.1,0,14.7,6.6,14.7,14.7V328C279,336.1,272.4,342.7,264.3,342.7"/>
		<path id="Fill_11" class="st3" d="M247.7,199.9h-85c-2.4,0.1-4.3-1.8-4.4-4.2c0.1-2.4,2-4.3,4.4-4.2h85c2.4,0,4.3,1.8,4.4,4.2
			C252,198,250.1,199.9,247.7,199.9"/>
		<path id="Fill_13" class="st3" d="M247.7,225.1h-85c-2.4,0.1-4.3-1.8-4.4-4.2c0.1-2.4,2-4.3,4.4-4.2h85c2.4,0,4.3,1.8,4.4,4.2
			C252,223.3,250.1,225.1,247.7,225.1"/>
		<path id="Fill_15" class="st3" d="M247.7,250.3h-85c-2.4,0.1-4.3-1.8-4.4-4.2c0.1-2.4,2-4.3,4.4-4.2h85c2.4,0,4.3,1.8,4.4,4.2
			C252,248.5,250.1,250.4,247.7,250.3"/>
		<path id="Fill_17" class="st3" d="M247.7,275.5h-85c-2.4,0.1-4.3-1.8-4.4-4.2c0.1-2.4,2-4.3,4.4-4.2h85c2.4,0,4.3,1.8,4.4,4.2
			C252,273.7,250.1,275.6,247.7,275.5"/>
		<path id="Fill_19" class="st3" d="M207,300.8h-44.4c-2.4,0.1-4.4-1.8-4.4-4.2c0.1-2.4,2.1-4.3,4.4-4.2H207
			c2.4-0.1,4.4,1.8,4.4,4.2C211.4,298.9,209.4,300.8,207,300.8"/>
	</g>
	<path id="Fill_21" class="st7" d="M296.6,268.2c-16.7,16.7-42.9,19.1-62.4,5.8c-2.5-1.7-4.8-3.7-6.9-5.8c-3.3-3.3-6.1-7-8.3-11.1
		c-2.5-4.4-4.2-9.2-5.1-14.2c-5.2-26.6,12.2-52.3,38.8-57.5c6.2-1.2,12.6-1.2,18.8,0c5,1,9.8,2.7,14.2,5.1c2.7,1.5,5.2,3.2,7.6,5.2
		c1.2,1,2.4,2,3.5,3.2c19.2,19,19.3,50,0.2,69.1C296.7,268,296.7,268.1,296.6,268.2"/>
	<path id="Fill_23" class="st3" d="M259.8,290.9c-32.1,0-58.1-26.1-58-58.1c0-32.1,26.1-58.1,58.1-58s58.1,26.1,58,58.1
		c0,12.5-4,24.6-11.5,34.6c-1.7,2.3-3.6,4.4-5.6,6.4c-2,2-4.1,3.9-6.4,5.6C284.5,286.9,272.3,291,259.8,290.9L259.8,290.9
		L259.8,290.9z M259.8,187.5c-25,0-45.3,20.3-45.3,45.3c0,12,4.8,23.5,13.3,32c17.5,17.9,46.1,18.2,64,0.8
		c17.9-17.5,18.2-46.1,0.8-64c-0.2-0.3-0.5-0.5-0.8-0.8C283.3,192.3,271.8,187.5,259.8,187.5z"/>
	
		<linearGradient id="Fill_25_00000000939433327351468480000004216936135859962002_" gradientUnits="userSpaceOnUse" x1="4.6284" y1="508.5614" x2="3.2274" y2="507.1604" gradientTransform="matrix(61.9999 0 0 -61.9999 111.4273 31812.4609)">
		<stop  offset="0" style="stop-color:#F58862"/>
		<stop  offset="1" style="stop-color:#F063A3"/>
	</linearGradient>
	<path id="Fill_25" style="fill:url(#Fill_25_00000000939433327351468480000004216936135859962002_);" d="M390.3,359.5l-1,1
		c-6.3,6.3-16.6,6.3-22.9,0l-58.2-58.2l23.9-23.9l58.2,58.2C396.6,342.9,396.6,353.2,390.3,359.5"/>
	<path id="Fill_27" class="st3" d="M307.8,265.7l17.2,17.2l-12.2,12.2l-17.2-17.2c2.3-1.7,4.5-3.6,6.5-5.7
		C304.1,270.2,306,268,307.8,265.7"/>
	<path id="Fill_29" class="st9" d="M389.4,335.9l-23.7,23.7l-4.3-4.3l23.7-23.7L389.4,335.9z"/>
	
		<linearGradient id="Fill_31_00000116939243935126883420000001641139223650547083_" gradientUnits="userSpaceOnUse" x1="9.0973" y1="499.4491" x2="7.6962" y2="498.048" gradientTransform="matrix(20 0 0 -20 151.4272 10264.5166)">
		<stop  offset="0" style="stop-color:#EF4451"/>
		<stop  offset="1" style="stop-color:#F063A3"/>
	</linearGradient>
	<path id="Fill_31" style="fill:url(#Fill_31_00000116939243935126883420000001641139223650547083_);" d="M333.4,279.2L309,303.6
		l-3.6-3.6l24.4-24.4L333.4,279.2z"/>
	<path id="Fill_33" class="st11" d="M280.1,194.7l-59.8,59.8c-2.2-4-3.8-8.3-4.6-12.7l51.7-51.7
		C271.8,190.9,276.1,192.5,280.1,194.7"/>
	<path id="Fill_35" class="st11" d="M299.7,208.9l-64.7,61c-2.3-1.5-4.5-3.3-6.6-5.2c-1.1-1-2.1-2-3-3.1l65.5-61.8
		c1.1,0.9,2.2,1.8,3.3,2.8C296.3,204.6,298.1,206.7,299.7,208.9"/>
</g>
</svg>
