<?xml version="1.0" encoding="utf-8"?>
<!-- Generator: Adobe Illustrator 26.0.1, SVG Export Plug-In . SVG Version: 6.00 Build 0)  -->
<svg version="1.1" id="Layer_1" xmlns="http://www.w3.org/2000/svg" xmlns:xlink="http://www.w3.org/1999/xlink" x="0px" y="0px"
	 viewBox="0 0 512 512" style="enable-background:new 0 0 512 512;" xml:space="preserve">
<style type="text/css">
	.st0{opacity:0.35;}
	.st1{fill-rule:evenodd;clip-rule:evenodd;fill:#9CD6CB;}
	.st2{fill:#FFFFFF;}
	.st3{fill-rule:evenodd;clip-rule:evenodd;fill:#439A97;}
</style>
<g id="Group_4" transform="translate(-1296.274 -105.956)" class="st0">
	<path id="Path_1" class="st1" d="M1688.7,497.7c2.9,9.8,0.9,20.4-5.4,28.5c-4.2,5.1-14.1,9.6-19.6,4.3c-2.5-2.4-3.5-10.4-4.6-14.2
		c-1-3.5-2.6-9.9-1.9-12.8c1.1-4.2,9.5-3.3,13.4-3.6C1676.7,499.3,1682.7,498.5,1688.7,497.7z M1768.3,502.5
		c1.7,2.6,3.1,5.3,4.3,8.1c0.6,2.1,1,4.2,1.2,6.4c0.3,2.6,0.5,2.5-1.3,3.8c-2.8,1.9-9.8,1.7-13.2,2.3c-4.4,0.7-8.8,1.5-13.2,2.2
		c1.1-4.1,0.5-8.5,1.6-12.7c1.1-4.1,3-8,5.6-11.4c1.8-2.9,4.9-4.9,8.3-5.5C1766.2,495.8,1766.9,499.3,1768.3,502.5L1768.3,502.5z
		 M1489.6,414.9c1,8.9-0.9,17.9-5.6,25.6c-2.4,2.8-4.9,5.3-7.7,7.7c-2.9,3.2-4.4,7.1-9,8.5c-3.1,0.5-6.3,0.7-9.5,0.7
		c-3.8,0.8-7.8-0.2-10.9-2.7c-3.1-1.9-6.6-1.5-9.9-3.6c-3.9-2.5-7.3-6-11-8.8C1446.8,432.1,1468.2,423.5,1489.6,414.9z
		 M1545.2,420.1c7.4,3.5,12.7,10.3,14.4,18.3c-21.8,5-43.1,11.1-64.5,18c6-15.2,12.7-29.2,29.1-36.3c3.3-1.4,6.6-3.7,10.4-3.6
		C1538.2,417,1541.9,418.2,1545.2,420.1z M1744.3,442.7c11.2,5.9,5.5,24.9,1.6,33.3c-5-3.7-10.3-7.3-15.1-10.9
		c-5.2-4.2-10.3-8.7-15-13.4c2.6-1.3,4.3-3.5,6.7-5c2.3-1.2,4.8-2,7.4-2.2C1734.9,443.3,1739,439.9,1744.3,442.7L1744.3,442.7z
		 M1656.5,400.1c0.9,1.2,2,2.2,2.8,3.4c1.9,2.9,4,5.8,6.2,8.5c4.2,4.7,10.4,11,17.3,11.4l0.2,2c-2-0.1-3.3-1.8-5-2
		c-1.4-0.1-3.3,0.9-5,0.8c-5.2-0.5-10.5-0.7-15.8-0.6c-10.5,0.6-20.9,1.7-31.3,3.3c1.8-7.4,5.9-14,11.6-19c2-1.9,4.1-3.6,6.3-5.2
		c1.4-0.6,2.8-1.1,4.3-1.5c1.6-0.7,3.8-3.1,5.5-3.3C1655.3,397.6,1655.3,398.5,1656.5,400.1L1656.5,400.1z M1741.1,400.7
		c5.3,4.7,10.1,9.8,14.3,15.4c4.1,4.8,9.7,11.7,11.2,17.9c-7.3,3.4-19.8,0.3-24.6-6.1C1736.2,420.2,1739.1,409.2,1741.1,400.7
		L1741.1,400.7z M1614.3,375.4c-1.2,7.9-4.6,15.2-10,21.1c-2.1,2.7-4.4,5.2-6.9,7.5c-3.4,2.7-6.1,1.3-10.1,1.7
		c-4.2,0.4-7,3.2-11.5,2.5c-3.2-0.5-6.2-2.3-9.2-2.9c-3.2-0.1-6.4-0.8-9.5-1.9c-3.9-2.5-7.4-5.5-10.5-9c2.3-1,4.7-1.8,7.1-2.1
		c2.8-0.9,5.6-1.9,8.4-2.8c5.8-1.9,11.7-3.8,17.5-5.6C1591.1,380.2,1602.6,377.4,1614.3,375.4L1614.3,375.4z"/>
	<path id="Path_77" class="st2" d="M1347,268.5l19.6-1.7l35.8,4.6h11.1l4.4-4.6l7.4,5.6l15.2-1l47.7-18.4l12.9,1.9l16.9,11.9
		l16.7,3.1l30.6-9.6l44,13.4l5.9-6.1l5-0.9l-1-8.6l-24.5,3h-4.9l-2.8-7.2v-12.5l-7-4.8l7.9-4.6l6.8-14.8l5.9-7.1l5.9-3.1l27.9,3.7
		l2.7,13.3l-14.5,8h16l-4.2,6.4l-1.3,3l3.1,0.6l9.3,14.7l5.7,5l5.3-4.6l8.6-9l6.9-15.3l44.6-11.5l21.3-27.5l20.6,5.2l9-2.9v-8.1
		l9.5-10.4l10.3-31.2l10,24.1l-2.1,28.6l-14.6,12.3l-59,55.2l-22.1,14.9l19.3,19.2l16.9,27.4l4,35.6l-8.7,24.2l26.4,24.8l30.4,50.7
		l8,46.5l-8,12.3l-89.2,18.6l-31.7,11.2l-10.1-34.9l-18.4,3.3l-13.9,13.1v40.3l-9.2-4.2l-14.1-55.9l2.9-6.4l47-6.4l11-4.7l57-10
		l22-2.7l5.4-1.1l-63.7-51.5l-11.6-4.9l-37.6,2.4l-65.5,12.3l-110.7,35.3l-34.6,25.9l-7.8-17.2l-27.3,12l-7.3,13.6l-10.8-3
		l-16.3-11.2l-43.9,1.9l2.9-9.4l50.1-12.3l43.5-16.9l-2.7-10.1l41.3-22.8l96.6-35.4l72.9-20.3l12.9-14.7l6.6-5.2l1.3-9.2l-21.9-21.9
		l-82.9-14.4L1426.5,291l-6.9,3.4l-4.7-1.6l-4.7-6.9l-31.2,1.6l-35.1-13.9L1347,268.5z"/>
	<g id="Group_3" transform="translate(1296.274 105.956)">
		<path id="Path_2" class="st3" d="M492.8,87.4l-0.4,2.4C496,90.5,496.1,88.3,492.8,87.4z M477.3,83.2c-1.9-0.7-5,0.3-3.5,2.6
			C476,89,476.9,84.8,477.3,83.2L477.3,83.2z M323.6,172.3c-1-2.7-2.2-5.3-3.5-7.8c-2.2,1.2-2.3,0.9-1.4,3
			C319.9,169.4,321.6,171,323.6,172.3z M124.3,174c-1.3-0.3-2.7-0.5-4-0.3c-1.2,0.5-0.9,1.7-1.1,3.4
			C122.9,176.9,123.4,177.4,124.3,174L124.3,174z M119.6,170.5l5.3,1c0.4-2,1.4-5.4-2.4-4.1C121.5,168.3,120.5,169.3,119.6,170.5
			L119.6,170.5z M327.7,174.6c-1.9,1.9,6.8,5.8,7.7,4.6C337.5,176.4,329,175.1,327.7,174.6L327.7,174.6z M370.9,152.6l3.2-0.3
			c-0.4-1.5-1.5-7.2-3.8-6.9C368,145.7,370.6,151.4,370.9,152.6z M374.7,161.8c0.3-1.8,0.3-3.6,0.1-5.3c-0.3-0.8-1.7-3.4-3.8-1.7
			c-0.4,1.8-0.6,3.7-0.5,5.6C371.1,161.1,374,161.6,374.7,161.8L374.7,161.8z M363.8,178.3c-2.2-1.7-6.9-4.1-9-0.4
			C352,183.1,362,179.6,363.8,178.3L363.8,178.3z M351.5,178.7c-2.8,0.5-5.7,0.5-8.6,0.3c-3.2-0.2-4-1.2-4.9,1.9
			c4.6,1.5,9.5,1.8,14.3,0.9L351.5,178.7z M369.4,164.5c-1.4,2.2-2.7,4.5-3.7,6.8c-0.4,1.6-0.6,0.8-0.2,2c0.7,0.9,1.4,1.8,2.2,2.7
			c2.4-1.4,4.4-3.4,5.8-5.7C375.1,166.3,372.9,166,369.4,164.5L369.4,164.5z M321,156.2c-7.6,2.7-15.7,4-23.8,3.8
			c4.6,2,9.5,3.5,14.5,4.2c1.6-0.3,1.7-2.5,3.6-3.7c2.1-1.3,3.8-0.5,6.2-0.7L321,156.2z M344.8,186.5c-6.4-0.4-12.8-2.1-18.5-5
			c-3.2-1.8-6-4.2-8.1-7.2c-1.7-2.3-1.4-2.1-4.1-2.8c-2.2-0.3-4.4-0.5-6.6-0.6c-7-1.1-13.9-2.8-20.6-5.2c-7.5-2.5-13.9-6-22.1-5.8
			c-14.1,0.3-25.5,11-40.1,6.5c-6-1.6-11.6-4.3-16.5-7.9c-6.1-4.9-9.8-7.9-18.5-6.1c-6.9,1.4-12.3,5.1-18.2,8.5
			c-6.9,3.7-14.2,6.4-21.7,8.2c-2.9,0.8-5.8,1.3-8.8,1.4c-1.8,0.1-10.6-1.2-11.7-0.3s-1.5,7.2-1.4,8.3c0.2,1.9-0.7,2.1,1.4,2.9
			c2.5,0.2,5,0.3,7.5,0.2c14.1,1.6,28.6,2.1,42.5,4.5c13.1,2.3,26.2,4.1,39.1,6.8c16.8,3.5,33.9,5.1,50.7,8.5
			c8.1,1.6,16.3,3.9,24.4,5.7c7.3,1.6,14.7,3.1,22,4.5c-0.3-1-1.8-4.7,0.6-4.4c1.5,0.2,4.1,5.6,5,6.8c3.6,5.3,7.9,10,12.9,14.1
			c5.1,4.4,10.3,8.8,15.6,13.2c4.3,3.6,13.4,8.9,13.2,15.1c-2.6,0.5-7.8-4.1-9.7-5.4c-3.9-2.5-7.7-5.3-11.4-8.2
			c-3.5,5.1,4.7,10.9,5.7,15.7c-2.1,0-5.6-5.8-6.9-7.3c-3.6,2.9-6.9,6.2-9.7,9.9c27.4-1.2,31.9,32.8,51.7,44.3
			c4.5,2.6,9.8,3.5,14.9,2.5c5.2-1,10.3-3,14.8-5.8c10.3-6.6,17.8-19.2,21.8-30.1c2.4-5.9,4.1-11.9,5.3-18.1
			c0.7-7,0.4-14.1-0.8-21.1c-1.9-12.9-8.1-24.8-17.6-33.9c-4.2-4-8.8-7.5-12.6-11.8c-1.3-1.5-4.4-7.3-6.1-7.7
			c-3.1-0.7-4.7,3.7-6.8,0.1c-2.1-3.5,1.9-4.8,4.3-6.5c2.6-1.7,5.2-3.6,7.7-5.4c5.1-3.6,10.1-7.2,15-11c23.8-18.8,44.8-39.7,66.1-61
			c-4-0.9-9.7-3.7-13.7-2.9c-4.1,0.7-7.7,3.6-11.9,4.1c-4.1,0.3-8.2-0.3-12.1-1.7c-4.6-1.5-7.6-3.5-11.5,0.3
			c-6.1,6.2-9.5,14.8-16,20.7c-6.9,5.7-15.2,9.6-24.1,11.2c-7.9,1.7-18.7,0.9-24.5,7.1c-1.4,1.1-2.3,2.7-2.5,4.5
			c-0.1,3.7,0.7,1,1.9,3.3c1.8,3.9,2.8,8.2,3.1,12.5c0.9,8.3-0.2,17.5-6.9,23.2C363.3,183.8,354.1,186.9,344.8,186.5z M344.4,173
			c4.9,2.5,14.7-0.8,18.6-3.8c5.3-4.1,5.7-11.3,4.9-17.3l-7.4,1.8l-3.1,0.8c0.1,0.8,0,1.7-0.4,2.4c-2.3,3-3.4,1.5-6-1.1
			c-5.6-5.3-9.9-11.8-12.4-19.1c-2.1,3-5.6,4.6-9.2,4.3c-1.7-0.2-8.4-2.2-6.7-5.3c0.5-1,5.9,0.2,7.7,0.2c3.8-0.2,5.5-0.1,6.9-3.7
			c1.2-3,0.7-4.2-2.8-4.7c-4.5-0.7-4.6,2-7.8,3.3c-8.2,3.2-2.6-9.5-3.7-13.1c4.1-0.9,8.1-2.3,11.8-4.3c-3.9,0.7-7.7,1.6-11.5,2.7
			c0.3-4.7,9.6-5.7,13.1-7.1c-3.8-0.5-7.3,2-11.1,1.8c-4-0.4-8-1.4-11.8-2.7c-3.5-1.2-6.2-4.4-9.6-1.6c-2.7,2.7-4.7,5.9-5.9,9.5
			c2.2-0.3,7.4-0.7,8,1.7c0.8,3.2-5.7,1.3-7.7,1.9c-3,0.8-2.1,1.7-3.2,4.7c-1,3-3.2,5.3-6.1,6.5c3.4,1.8,4.3,1.8,3.7,5.2
			c-0.5,3.6-0.4,7.2,0.1,10.8c2.1-0.7,4.2-1.2,6.4-1.3c0.4,2.7-3.8,3.8-6,4c1.1,3.6,1.2,3.4,5.1,3.4c2.2,0,4.4-0.1,6.6-0.2
			c4.4-0.3,8.8-0.9,13.2-1.7c1.9-0.6,3.8-0.9,5.7-1c3.1,0.3,2.5,0.7,2,3.3c-0.4,3.4-0.1,6.8,1,10.1c-5.2-1.8-1,3.7,1.4,4.8
			C333.3,170.7,338.8,172.3,344.4,173L344.4,173z M57.9,386.7c3.7,1.7,7.2,3.7,10.6,6c3.4,2.4,6.9,6.3,11.2,7.1
			c5.1,0.9,6.3-1.7,7.6-5.6c0.8-3.8,3.3-7,6.7-8.8c7.5-4,15.2-7.4,23.2-10.1c3-1.2,3.2-0.9,2.3-4c-0.5-1.8-1.2-3.6-1.9-5.4
			c-1.2-3.4-2.8-6.6-4.9-9.6c-12.3,8.1-27.1,17.5-42.2,19.4c-6.2,0.8-12.2,2.2-18.3,2.7c-2.8,0.2-5.6,1-8.1,2.3c-3,1.4-7.8,2-10,4.3
			C42.2,385,50,386,57.9,386.7L57.9,386.7z M360.5,397.3c-2.5,1,0.9,6.9,1.6,9.3c1.1,3.7,2.1,7.3,3.2,11c2.3,7.7,4.4,15.5,6.6,23.3
			c14.4-7.3,29.7-12.7,45.5-15.9c15.8-3.7,32-6.3,48.2-8.9c9-1.2,17.9-3.5,26.3-6.9c5.1-2.2,4.1-4.3,4-9.3c-0.2-4.7-0.7-9.4-1.5-14
			c-1-9-3.1-17.9-6.3-26.4c-3.7-8-7.8-15.7-12.4-23.1c-5.2-8.9-9.7-18.5-16.5-26.4c-7.1-8.2-14.8-15.7-22.5-23.4
			c-4.6,8.8-11.2,19.4-19.7,24.9c-9.4,6.1-24.1,9.2-34.8,4.1c-10.7-5.1-17.1-15.6-23.8-24.7c-6.4-8.8-12-18.4-23.5-21.5
			c-12.1-3.3-24.8,1.2-36.6,4c-13.4,3.2-26.6,7.9-39.6,12.3c-22.6,7.6-45.1,14.6-67.2,23.6c-27.2,11.2-54.4,22.2-80.7,35.3
			c5.6,7.6,10.1,16,13.3,24.9c2.5,7.4,4.1,15.1,4.6,22.9c3.1-3,5.4-6.7,8.5-9.7c3.6-3.3,7.5-6.3,11.7-8.9c7.4-5,15.2-9.4,23.3-13.2
			c18.6-8.5,38.4-14.4,58.1-20.5c4.7-1.6,9.5-2.8,14.3-3.7c3.9-0.6,7.4-1.8,11.4-2.7c9.1-2.1,18.2-4.1,27.4-5.7
			c17.6-3,35.5-6.2,53.3-8.2c12.1-1.4,24.7-3.7,37.1-2.5c2.1,0.3,4.2,0.5,6.3,0.6c0.6,0,1.3-0.9,1.9-0.8c1.2,0.1,2.4,1.4,3.6,1.8
			c2.7,0.9,6.6,0.3,8.1,2.6c1,1.2,0.9,2.9-0.3,3.9c-0.2,0.2-0.4,0.3-0.7,0.4c2.7,2.8,5.8,5.2,9.1,7.3c2.5,1.9,4.9,3.9,7.5,5.8
			c2.8,2,6.1,3.8,9,5.8c3.8,2.6,7,6,10.5,8.9c6.4,5.3,12.8,9.8,19.5,14.8c3.5,2.7,7.2,5.1,11,7.3c2.2,1.2,7,4.4,4.5,7.4
			c-2.5,3-7.6-1.4-10.4-1.7c-3.2-0.4-7.5,1.6-10.7,2.1c-8.4,1.2-16.9,2.3-25.3,3.7c-9.6,1.5-19.1,3.6-28.8,4.9c-5,0.7-10,1.3-15,1.7
			c-2.9-0.1-5.8,0.2-8.7,0.7c-1.8-0.5-2.6,0-2.4,1.6C362,396.4,361.3,397,360.5,397.3L360.5,397.3z M93.9,177.1
			c5.3,0,10.5,0.3,15.8,0.2c2,0,3.8,0.4,4.6-1c1-1.7,0.5-6.2,0.7-8.1c-6,0.6-12,0.6-17.9,0.1c-6.6-0.6-13-2.5-19.6-2.9
			c1.4,0.5,3,3.4,2.1,4.9c-0.9,1.4-2.4,0.1-3.8-0.5c-5.6-2.5-10.2-6.1-16.5-4.5c5.8,3,11.3,7.8,17.3,9.5
			C82.2,176.4,88,177.2,93.9,177.1z M484.9,80.2c2.6,0.5,7.6,3,9.9,1.7c2.8-1.6,2.2-8,2.3-10.4c0.3-7.6,0.9-18.1-5.1-24.3
			c-1.1,7.3,1.3,15,1.1,22.4c-0.1,5.6-2.2,2.5-3-1.4c-0.7-3.6-0.6-7.2-1.5-10.7c-1.4,3.3-2.5,6.6-3.3,10c-1.6,4-3.6,7.8-5.8,11.5
			C481.3,79.3,483.1,79.8,484.9,80.2L484.9,80.2z M118.9,180.5c0,2.1-0.3,4.1,2.3,4.3c3.6,0.3,2.4-3.4,2.2-5.6
			C122.1,179.4,119.2,179,118.9,180.5z M483.4,83.7c-2.2-0.3-2.6-0.8-4,0.8c-0.9,0.9-1,2.4-0.2,3.4
			C482.6,90.5,483.2,85.2,483.4,83.7z M485.5,88.6c1.7,0.3,3.4,1.3,4.4-0.5c1.4-2.5-2-2.7-3.8-3.5C485.9,86,485.7,87.3,485.5,88.6
			L485.5,88.6z M376.9,325.1c-19.1-0.5-37.9,2.5-56.7,5.8c-16.6,2.9-33.1,5.3-49.3,9c-32.7,7.4-65.5,15.6-95.8,29.8
			c-7.4,3.3-14.6,7-21.5,11.1c-3.7,2.3-7.4,4.5-10.8,7c-1.9,1.4-3.9,2.8-5.7,4.3c-1.6,1.4-2.6,3.3-4,4.7c-1.4,1.3-2.9,2.4-4.6,3.3
			c-1.9,0.6-1.1,0.6-3.1-0.7c-4-2.7-4.8-6.4-6-10.8c-0.8-3.1-0.2-4.1-3-4c-1.7,0.5-3.4,1.1-4.9,2c-4.3,1.8-8.9,3.2-12.9,5.3
			c-3.3,1.4-5.9,4-7.4,7.3c-1.7,4-2.6,7.2-7.7,7.7c-9,0.8-14.2-8.2-22-11.2c-8.3-3.3-18.8-2.6-27.5-2.7c-3.2,0-6.5,0.2-9.7,0.7
			c-4.3,0.6-9.4,2.9-13.8,1.5c-5.1-1.7-5-9-1.6-12.1c3.6-3.3,8.8-3.8,13.3-4.9c9.2-2.2,17.5-7.3,26.9-8.8c9.3-1.5,19.2-1.9,28.2-4.7
			c4.6-1.2,9.1-2.8,13.5-4.6c5.5-2.5,11.4-4.1,16.8-6.6c-1.7-3-2.5-6.5-2.5-10c-0.1-2.4-0.5-2.4,1.2-3.5l1,0.5
			c1.1,0.8,1.8,0.4,2.3-1c7.5-4.5,14.4-9.4,22.4-13.4c13.4-6.6,27.6-12,41.1-18.3c25.5-12,53.9-18.9,80.7-27.7
			c16.2-5.3,32.9-9.7,49.5-13.6c2.9-0.7,5.8-1.3,8.8-1.7c5-0.8,3.8-0.8,6.4-4.7c3.5-5.4,8.2-9.9,13.6-13.3c3.2-1.9,4.6-1.6,4.5-5.8
			c-0.1-3.2-0.9-3.1-3.5-5.3c-2.9-2.4-5.6-5-8.1-7.9c-2.3-3.3-4.5-6.7-6.4-10.2c-2.9-4-11.7-3.3-16.6-4c-7.7-1.1-15.6-1.9-23.2-3.6
			c-15.4-3.4-30.9-4.6-46.5-7c-15.7-2.4-31.3-4.6-47-6.7c-5.6-0.8-11.3-1.4-16.9-2.4c-7.8-1.4-16.1-1.5-24-2.8
			c-4.1-0.7-9.1-3-13.2-2.8c-4.4,0.2-0.5,0.2-3.4,1.7c-1.3,0.8-2.8,1.2-4.3,1.4c-2.4,0.1-4.7-0.9-6.2-2.7c-2.4-3-1.2-5.3-6.2-5.7
			c-3.5,0.2-6.9,0.6-10.3,1.2c-3.2,0.2-6.6,0.6-9.8,0.5c-6.8,0.1-13.6-1.1-20-3.5c-6.2-2.9-11.7-6.8-18.3-9.3
			c-3.3-1.2-7.9-1.8-10.1-4.8c-1.8-2.5-2.4-7.6,0.4-9.7c4.3-3.2,12.7,1.6,17.5,0.4c2.4-0.6,0.4-1.3,2.3-2.2c0.7-0.4,1.5-0.7,2.3-0.8
			c3.3-0.5,8.8,1.9,12.2,2.4c6.7,1.1,13.4,2.8,20.1,3.8c3.8,0.6,7.7,0.7,11.5,1.4c3.3,0.5,6.1,1.8,8.5-0.8c1-1.1,0.7-2.3,2.4-2.9
			c2.4-0.3,4.8,0,7.1,0.8c1.6,0.6,1.9,1.5,3.1,2.1c0,1.3,0.6,1.7,1.6,1.2c1-0.1,2,0,2.9,0.2c8.5-0.3,16.9-2.3,24.7-5.7
			c12.8-5.2,28.8-19.8,43.5-11.8c3.6,2,6,5.2,9.5,7.3c3.4,2,6.9,3.5,10.7,4.6c6.9,2.1,14.2,1.9,21-0.3c8.5-2.7,15.4-5.5,24.5-5.2
			c8.5,0.3,15.3,6.1,23.6,6.4c-1.8-3.3-2.7-7-2.6-10.7c-0.1-2.4,1.2-8.8-0.3-10.7c-1.6-2.2-14.2-3-7.2-9.4c2.3-2.1,6.6-1.3,8.9-3.6
			c2.4-2.3,2.5-5.9,3.7-8.8c1.6-3.2,3.7-6.1,6.3-8.6c1-0.9,1.8-2,2.3-3.1c0.7-1.5,0.2-2.8,1.3-4.5c3.7-5.5,10.2-3.6,15.8-2.8
			c3.6,0.1,7.3,0.4,10.8,1c3,1.1,5.8,2.7,8.3,4.7c4.8,3.7,5.9,10.4,6.2,16c0.2,3.3-0.4,6.3-0.5,9.5c-0.1,2.9-1.7,5.6-4.2,7.2
			c0-0.6-0.4-1.1-0.9-1.3c-1.2,1.4-0.9,2,0.9,1.7c0.1,0.8,0.4,1.6,0.9,2.3c1.4,1.6,2.7,3.4,4.1,5c3.3,3.3,6.3,6.9,9,10.7
			c2.5-2.9,5.6-3.4,8.6-5.3c2.9-1.9,0.7-2.5,1.8-5.3c0.4-1.1,1.5-1.3,1.9-2.2c0.4-0.8-0.1-1.3,0.1-2.2c1.1-4.5,0.7-7.3,4.3-10.8
			c4.8-4.7,10.7-5.9,17.3-6.8c5.9-0.4,11.6-1.7,17.1-3.8c2-0.9,3.9-1.3,5.9-2.3c2.6-1.3,5-2.9,7.3-4.7c5.3-4.3,8.5-10.4,12.8-15.6
			c3.4-4.2,7.5-9.5,13.6-8.4c7,1.3,13.1,5.5,20.5,3.2c2.8-0.8,2.5-0.3,3.6-3c0.4-0.9,0.6-1.8,1-2.7c1.3-3.3,3.8-3.7,5.4-6.3
			c3.4-6.7,6-13.7,7.9-21c1-3.2,2.9-6,4-9.1c0.5-1.3,0.3-7,1.8-7.5c4.9-1.6,8.8,11.1,9.7,13.5c2.7,6.3,3.9,13.2,3.4,20.1
			c-0.3,2.9-0.8,5.8-1.4,8.7c-0.7,1.4-0.8,3-0.4,4.5c0.5,2,0.7,4,0.5,6c-0.1,1.2-0.3,2.3-0.7,3.5c-1.3,1.6-1.5,0.5-3.2,1.1
			c-2.2,0.8-4,2.3-5.2,4.3c-4.7,6-9.7,12-14.8,17.7c-9,9.8-18.5,19.1-28.5,27.8c-9.8,9-20.4,17.3-31.5,24.7
			c-2.7,1.7-7.2,3.3-9.4,5.5c-2.4,2.5,1.2,3.6,3.7,5.3c5,3.4,9.8,7.1,14.2,11.2c9.1,8.7,14.3,21.5,17.5,33.2
			c1.4,6.4,2.3,12.8,2.6,19.3c0.7,7.6-0.1,15.2-2.5,22.4c-0.9,2.7-1.9,5.3-2.8,7.9c-0.4,1.2-2.3,5-1.8,6.5c0.9,2.3,6.6,5.2,8.6,6.8
			c2.8,2.2,5.4,4.6,7.8,7.2c9.5,11.1,17.8,23.3,24.7,36.1c7.2,13.2,14.1,25.2,16.9,40c0.7,3.9,1.4,7.8,2.2,11.6
			c0.8,4.2,0,10.2,1.7,14c1,2.4,3,3.1,2.2,6.4c-1.4,3.7-3.5,7.1-6.1,10c-4.3,5.1-12.2,7-18.5,8.9c-7.7,2-15.6,3.5-23.5,4.5
			c-28.1,4.6-55.6,9.5-81.6,21.2c0.9,1.3,1.6,4-0.2,4.9c-2.4,1.2-3.5-2.3-4.3-3.8c-2-4.9-3.5-9.9-4.5-15.1
			c-3.4-11.9-6.1-23.9-8.9-36c-9.6,2-19.2,3.1-28.7,4.9c-4.4,0.9-8.8,0.9-13.2,1.5c-4.7,0.6-5,2.1-4.7,6.6c0.8,10,4.8,19.6,7.1,29.3
			c1.1,4.7,3,9.2,4.1,13.9c0.3,1.5,0,5.6,1,6.8c0,0,3.6,0.7,4.2,0.8c-0.3-5.9,0.4-11.7,0.1-17.6c-0.3-6.1-1.1-14.1,0.2-19.9
			c1.6-5.8,5.7-10.7,11.2-13.3c4.5-2,13.5-5.1,18.4-2.2c0.9,0.5,2.9,2.1,2.4,3.3c-0.7,1.7-7.9,2.9-9.4,3.5
			c-6.1,1.8-11.3,5.6-15.1,10.7c-2.9,4.6-1.7,11.7-1.6,17c0.2,2.9,0.3,5.9,0.1,8.8c-0.8,3.2-0.5,6.5,1,9.4c2,4.3,0.8,10.6-5.3,9
			c-3.6-0.9-3.8-2.9-6-5.1c-0.8-0.8-1.8-0.5-2.6-1.5c-1.1-1.4-1.1-4.4-1.6-6.2c-1.8-5.6-4.3-11-6.1-16.6c-2.5-7.6-4.6-15.2-6.4-22.9
			c-1.4-6-2.9-12.1,0-18c2.6-5.2,8.9-4.8,14.1-5c12.1-0.4,24.7-3.1,37-3.7c1.2,0.1,2.4,0.1,3.6-0.1c1.1-0.5,1.5-2,3-3
			c3.6-1.6,7.4-2.7,11.3-3c7.1-1.3,14.3-2.3,21.4-3.6c8.2-1.5,16.3-3.3,24.4-4.7c7.8-1.3,15.7-1.6,23.6-2.5
			c-12.6-8.1-23.6-18-35.7-26.8c-5.5-3.9-10.8-8.2-15.8-12.8c-2.1-2-4.2-3.9-6.1-6c-1-1.1-1.9-3.3-3.2-4.1
			C380.7,325.2,378.8,324.9,376.9,325.1L376.9,325.1z"/>
		<path id="Path_3" class="st3" d="M330.8,97c-4.3-0.1-8.7-0.6-13-1.3C322.2,95.6,326.5,96.1,330.8,97"/>
		<path id="Path_4" class="st3" d="M102.4,161.9l-5.3-0.5C98.8,161.2,100.7,161.3,102.4,161.9"/>
		<path id="Path_5" class="st3" d="M211.3,200.4L211.3,200.4"/>
		<path id="Path_6" class="st3" d="M331.6,444.6c0.1-1.4,0.1-2.8,0.2-4.1C331.7,441.9,331.7,443.2,331.6,444.6"/>
		<path id="Path_7" class="st3" d="M325.2,455.3c0,1,0,2-0.1,3C325.1,457.3,325.1,456.3,325.2,455.3"/>
		<path id="Path_8" class="st3" d="M351.6,409.1l-3.6,0L351.6,409.1"/>
		<path id="Path_9" class="st3" d="M182.5,196l2.4,0.3L182.5,196"/>
		<path id="Path_10" class="st3" d="M315.5,95.4l-2.9-0.3L315.5,95.4"/>
		<path id="Path_11" class="st3" d="M325.3,439.9c0,1-0.1,2-0.1,3C325.3,441.9,325.3,440.9,325.3,439.9"/>
		<path id="Path_12" class="st3" d="M177.8,195.6l2.4,0.2L177.8,195.6"/>
		<path id="Path_13" class="st3" d="M190.1,197.3l2.4,0.2L190.1,197.3"/>
		<path id="Path_14" class="st3" d="M318.9,396.1l-3,0L318.9,396.1"/>
		<path id="Path_15" class="st3" d="M284.5,211.5l1.8,0.2L284.5,211.5"/>
		<path id="Path_16" class="st3" d="M325.7,450c-0.1,0.8-0.1,1.6-0.2,2.4C325.6,451.6,325.6,450.8,325.7,450"/>
		<path id="Path_17" class="st3" d="M376.7,325.3l1.8,0.2L376.7,325.3"/>
		<path id="Path_18" class="st3" d="M194.3,143.5l-3,0L194.3,143.5"/>
		<path id="Path_19" class="st3" d="M78.4,157.4l-2.3-0.4L78.4,157.4"/>
		<path id="Path_20" class="st3" d="M91.9,159.8l-2.3-0.5L91.9,159.8z"/>
		<path id="Path_21" class="st3" d="M60.5,158.2l-2.3-0.5L60.5,158.2"/>
		<path id="Path_22" class="st3" d="M368.4,325.2l1.2,0.2L368.4,325.2"/>
		<path id="Path_23" class="st3" d="M286.9,136.3l1.2,0.2L286.9,136.3"/>
		<path id="Path_24" class="st3" d="M419.6,378.2l-2.4,0.1L419.6,378.2"/>
		<path id="Path_25" class="st3" d="M445.7,259.8c0.1-0.6,0.1-1.2,0.2-1.8C445.8,258.6,445.8,259.2,445.7,259.8"/>
		<path id="Path_26" class="st3" d="M305.1,213.9L305.1,213.9"/>
		<path id="Path_27" class="st3" d="M144.3,191.6l1.2,0.1L144.3,191.6"/>
		<path id="Path_28" class="st3" d="M82.7,175.8c1.8,0.1,3.6,0.3,5.3,0.8C86.2,176.7,84.4,176.5,82.7,175.8"/>
		<path id="Path_29" class="st3" d="M101.7,176.7c1.6-0.3,3.2-0.2,4.7,0.3L101.7,176.7"/>
		<path id="Path_30" class="st3" d="M344.3,173.2l4.1,0.4C347.1,174,345.6,173.8,344.3,173.2"/>
		<path id="Path_31" class="st3" d="M483.4,83.5l-2.9-0.4L483.4,83.5"/>
		<path id="Path_32" class="st3" d="M54.2,386.4c1.2-0.4,2.5-0.3,3.5,0.3L54.2,386.4"/>
		<path id="Path_33" class="st3" d="M128,176.7c0,1,0,2-0.1,3L128,176.7"/>
		<path id="Path_34" class="st3" d="M91,176.9l3,0L91,176.9"/>
		<path id="Path_35" class="st3" d="M344.9,186.5l-2.4-0.2L344.9,186.5"/>
		<path id="Path_36" class="st3" d="M126.1,374.4c0,1,0,2,0,3C126.1,376.3,126.1,375.4,126.1,374.4"/>
		<path id="Path_37" class="st3" d="M296.7,207.7l2.9,0.6L296.7,207.7"/>
		<path id="Path_38" class="st3" d="M95.3,168.2l-2.4-0.1L95.3,168.2"/>
		<path id="Path_39" class="st3" d="M290.3,206.5l2.9,0.5C292.2,207,291.2,207.3,290.3,206.5"/>
		<path id="Path_40" class="st3" d="M104.7,169l-1.8-0.1L104.7,169"/>
		<path id="Path_41" class="st3" d="M274.6,202.8l2.9,0.6L274.6,202.8"/>
		<path id="Path_42" class="st3" d="M485.3,88.8l2.9,0.6L485.3,88.8"/>
		<path id="Path_43" class="st3" d="M238.9,196.8l2.9,0.3L238.9,196.8"/>
		<path id="Path_44" class="st3" d="M484.9,80.4l2.9,0.6L484.9,80.4"/>
		<path id="Path_45" class="st3" d="M128,181l3,0.2C130,181.7,128.9,181.7,128,181"/>
		<path id="Path_46" class="st3" d="M323,121.3c0.1-0.8,0.1-1.6,0.2-2.4C323.1,119.8,323.1,120.6,323,121.3"/>
		<path id="Path_47" class="st3" d="M322.7,124.3c0.1-0.8,0.1-1.6,0.2-2.4C322.9,122.7,322.8,123.5,322.7,124.3"/>
		<path id="Path_48" class="st3" d="M325.9,268l-1.8-0.1L325.9,268"/>
		<path id="Path_49" class="st3" d="M377.4,158.2c-0.1,0.8-0.2,1.6-0.3,2.4C377.2,159.8,377.3,159,377.4,158.2"/>
		<path id="Path_50" class="st3" d="M390.1,308.2l3,0L390.1,308.2"/>
		<path id="Path_51" class="st3" d="M323.8,149.8c0.7-0.4,1.7-0.4,2.4,0.2L323.8,149.8"/>
		<path id="Path_52" class="st3" d="M330.5,141.3l-1.2-0.2L330.5,141.3"/>
		<path id="Path_53" class="st3" d="M334.2,260.9l2.3,0.5L334.2,260.9"/>
		<path id="Path_54" class="st3" d="M307.4,323.5l2.4-0.1L307.4,323.5"/>
		<path id="Path_55" class="st3" d="M290.5,326.8l2.4-0.1L290.5,326.8"/>
		<path id="Path_56" class="st3" d="M283.2,328l2.4-0.1L283.2,328z"/>
		<path id="Path_57" class="st3" d="M276,329.1l2.4-0.1L276,329.1"/>
		<path id="Path_58" class="st3" d="M428.5,385.6l-1.8-0.1L428.5,385.6"/>
		<path id="Path_59" class="st3" d="M307.2,209.8l2.3,0.5L307.2,209.8"/>
		<path id="Path_60" class="st3" d="M453.8,96.2l-1.2-0.1L453.8,96.2"/>
		<path id="Path_61" class="st3" d="M101.8,168.8l-1.2-0.1L101.8,168.8"/>
		<path id="Path_62" class="st3" d="M268.2,201.1l2.3,0.5L268.2,201.1"/>
		<path id="Path_63" class="st3" d="M179.2,186.2l2.3,0.4L179.2,186.2"/>
		<path id="Path_64" class="st3" d="M118.8,180.7c0,0.6,0,1.2,0,1.8L118.8,180.7"/>
		<path id="Path_65" class="st3" d="M110.5,177.4l2.4-0.1L110.5,177.4"/>
		<path id="Path_66" class="st3" d="M132.2,181.2c0.7-0.4,1.7-0.4,2.4,0.2L132.2,181.2"/>
		<path id="Path_67" class="st3" d="M404.7,228.9c2.8,0.4,4.2,1.1,5,3.8c0.4,1.3-0.7,3.7-0.3,4.5c0.5,1.1,1.1,0.5,1.9,1.5
			c2.9,3.7,4.5,11.1-1.3,13.7c-1.8-2.5-1.8-5.9,0.1-8.4c-3.1-0.7-4.7-0.8-5.7-3.9c-0.1-0.4-0.3-4.9-0.5-5c-0.6-0.7-3.2,0-4.1-0.5
			c-2-1.7-2.9-4.3-2.4-6.9c0.7-2.9,3.7-4.3,6-5.9c-7.4,0.2-14.2,5.8-21.6,6.1c-2.1,0.1-2.6,1-3.3-1.3c-0.6-2.1,0.1-1.8,1.4-2.8
			c3.2-2,6.7-3.5,10.3-4.5c4.7-1.7,12.9-5.6,18.1-3.4c2.7,1.3,4.2,4.2,3.6,7.1C411.2,225.6,406.8,227.4,404.7,228.9"/>
		<path id="Path_68" class="st3" d="M407.6,190.7c2.4,2.9,2.7,7,0.8,10.3c3.3-0.3,6.9-0.9,9,2.1c3.1,4.3-0.1,5.7-3.7,5.9
			c-2.9,0.2-8.6,2-11.1,0.1c-4.1-3.2,0-9.2,1.6-12.2c-2.6,0.1-9.3,0.9-8.1-4.1C396.9,189.2,405.1,190.1,407.6,190.7"/>
		<path id="Path_69" class="st3" d="M373.7,212.1l-2.6,3c1.3,0.3,3.1-0.8,4.2-1.3L373.7,212.1z M369.9,208c-3-0.4-6.3,3.6-7-0.9
			c-0.2-3,1.9-5.7,4.9-6.3c5-0.7,12,10.7,13.2,14.6c1.2,3.6-0.1,3.1-2.7,4.4c-2.3,1.2-5.3,3.8-8.2,3c-2.7-0.7-3.6-5.1-3.6-7.4
			C366.5,211.9,368.6,210.8,369.9,208L369.9,208z"/>
		<path id="Path_70" class="st3" d="M385.4,208c0.5,1.4,3.8,8,0.8,8c-1.6,0-4.7-9.5-5.2-10.6c-1-1.6-1.5-3.4-1.7-5.2
			c0.4-2.9,0.2-2,2.2-1.7c3.9,0.6,7,6.5,10.7,8c-1.5-5.6-3.8-11.7-2.2-17.5c4.3,4,4.5,12.3,5.7,17.8c0.4,1.7,1.2,5.1-0.6,6.2
			C393.1,214.2,386.7,208.9,385.4,208"/>
		<path id="Path_71" class="st3" d="M357.7,220.1c1.4-3,3-6.6-2.3-5.4L357.7,220.1z M355.9,207.4c4.6-0.4,7.2,5.6,7.6,9.1
			c0.4,2.8-2.5,12.4-6.4,9.5c-1.5-1.1-2.3-4.1-3.2-5.6c-1.5-2-2.9-4.1-4.1-6.2C347.8,209.6,351.5,207.5,355.9,207.4L355.9,207.4z"/>
		<path id="Path_72" class="st3" d="M356.1,207.5l-3,0L356.1,207.5"/>
		<path id="Path_73" class="st3" d="M408.1,191l-2.3-0.5L408.1,191"/>
		<path id="Path_74" class="st3" d="M414.3,201.1l-2.4-0.2C412.7,200.5,413.7,200.5,414.3,201.1"/>
		<path id="Path_75" class="st3" d="M305.3,124c3.9,2.8-4.6,13.1-8,4.7c-0.9-2.3-0.6-5.2,1.8-4.6c1.1,0.3,1.3,2,2.8,2
			S304.2,124.8,305.3,124"/>
		<path id="Path_76" class="st3" d="M327.6,133.6c0.1-2.1,4-6.2,6.3-3.5C336.1,132.9,329.3,133.6,327.6,133.6"/>
	</g>
</g>
</svg>
