<?xml version="1.0" encoding="utf-8"?>
<!-- Generator: Adobe Illustrator 26.0.1, SVG Export Plug-In . SVG Version: 6.00 Build 0)  -->
<svg version="1.1" id="Layer_1" xmlns="http://www.w3.org/2000/svg" xmlns:xlink="http://www.w3.org/1999/xlink" x="0px" y="0px"
	 viewBox="0 0 512 512" style="enable-background:new 0 0 512 512;" xml:space="preserve">
<g>
	<path d="M450,127H62c-10.4,0-18.9-8.5-18.9-18.9v0c0-10.4,8.5-18.9,18.9-18.9H450c10.4,0,18.9,8.5,18.9,18.9v0
		C468.9,118.5,460.5,127,450,127z"/>
	<path d="M304.2,265.9H62c-10.4,0-18.9-8.5-18.9-18.9v0c0-10.4,8.5-18.9,18.9-18.9h242.2c10.4,0,18.9,8.5,18.9,18.9v0
		C323.1,257.4,314.6,265.9,304.2,265.9z"/>
	<path d="M172.4,404.8H62c-10.4,0-18.9-8.5-18.9-18.9v0c0-10.4,8.5-18.9,18.9-18.9h110.5c10.4,0,18.9,8.5,18.9,18.9v0
		C191.3,396.3,182.9,404.8,172.4,404.8z"/>
</g>
</svg>
