<?xml version="1.0" encoding="utf-8"?>
<!-- Generator: Adobe Illustrator 26.0.1, SVG Export Plug-In . SVG Version: 6.00 Build 0)  -->
<svg version="1.1" id="Layer_1" xmlns="http://www.w3.org/2000/svg" xmlns:xlink="http://www.w3.org/1999/xlink" x="0px" y="0px"
	 viewBox="0 0 512 512" style="enable-background:new 0 0 512 512;" xml:space="preserve">
<style type="text/css">
	.st0{fill:#FFFFFF;}
	.st1{fill:#ED2024;}
</style>
<rect x="194" y="166.6" class="st0" width="152.3" height="177.3"/>
<path class="st1" d="M492.1,137c-5.7-21.3-22.4-38.1-43.6-43.9C410.1,82.7,256,82.7,256,82.7s-154.1,0-192.5,10.4
	c-21.2,5.7-37.9,22.5-43.6,43.9C9.6,175.6,9.6,256.4,9.6,256.4s0,80.7,10.3,119.4c5.7,21.3,22.4,37.4,43.6,43.2
	c38.4,10.4,192.5,10.4,192.5,10.4s154.1,0,192.5-10.4c21.2-5.7,37.9-21.8,43.6-43.2c10.3-38.7,10.3-119.4,10.3-119.4
	S502.4,175.6,492.1,137z M205.6,329.6V183.1l128.8,73.3L205.6,329.6L205.6,329.6z"/>
<path class="st0" d="M256,433.8c-6.3,0-155.1-0.1-193.7-10.5c-23.2-6.2-40.7-23.6-46.7-46.3C5.2,338.1,5.1,259.7,5.1,256.4
	c0-3.3,0.1-81.7,10.4-120.5c6.1-22.9,24-40.9,46.8-47C100.9,78.4,249.7,78.2,256,78.2c6.3,0,155.1,0.1,193.7,10.5
	c22.8,6.1,40.7,24.1,46.7,47l0,0c10.3,38.8,10.4,117.2,10.4,120.5c0,3.3-0.1,81.7-10.4,120.5c-6,22.8-23.5,40.1-46.8,46.3
	C411.1,433.6,262.3,433.8,256,433.8z"/>
<path class="st1" d="M256,87.2c-1.5,0-153.9,0.1-191.4,10.2c-19.7,5.3-35.1,20.9-40.4,40.7c-10,37.7-10.1,117.4-10.1,118.2
	s0.1,80.6,10.1,118.2c5.2,19.6,20.3,34.6,40.4,40c37.4,10.1,189.8,10.2,191.4,10.2s153.9-0.1,191.4-10.2c20.1-5.4,35.2-20.3,40.4-40
	c10-37.7,10.1-117.4,10.1-118.2s-0.1-80.6-10.1-118.2l0,0c-5.3-19.8-20.7-35.4-40.4-40.7C409.9,87.4,257.5,87.2,256,87.2z"/>
<polygon class="st0" points="210.1,190.8 210.1,321.9 325.3,256.4 "/>
</svg>
